<svg width="74" height="73" viewBox="0 0 74 73" fill="none" xmlns="http://www.w3.org/2000/svg">
<rect opacity="0.5" y="19.292" width="58.642" height="56.2647" rx="11" transform="rotate(-19.2068 0 19.292)" fill="#E7CAAA"/>
<path d="M31.8296 54.825L35.6109 36.746L38.9216 35.7555L52.0106 48.7874" stroke="#474747" stroke-miterlimit="10" stroke-linecap="round" stroke-linejoin="round"/>
<path d="M39.564 52.5107L37.4933 38.4155L38.2665 38.1842L44.2769 51.1007" stroke="#474747" stroke-miterlimit="10" stroke-linecap="round" stroke-linejoin="round"/>
<path d="M30.4025 54.5186L28.7246 55.0206C28.3883 55.1212 28.0246 54.9798 27.8351 54.6747L24.3601 49.0797C24.0684 48.61 24.0226 48.0262 24.2378 47.522L25.604 44.3215C25.7413 43.9999 26.1784 43.9737 26.3599 44.2761L29.066 48.7872C29.2532 49.0992 29.6214 49.2457 29.962 49.1438L31.6854 48.6283" stroke="#474747" stroke-miterlimit="10" stroke-linecap="round" stroke-linejoin="round"/>
<path d="M31.9872 44.7842L30.509 45.2265C30.1682 45.3284 29.7998 45.1817 29.6128 44.8694L27.4987 41.3405C27.2186 40.8731 27.1789 40.2985 27.3921 39.8023L28.4385 37.3673C28.5813 37.0349 29.0393 37.0229 29.2074 37.3471L30.6037 40.0409C30.78 40.381 31.166 40.549 31.5245 40.4418L33.0143 39.9961" stroke="#474747" stroke-miterlimit="10" stroke-linecap="round" stroke-linejoin="round"/>
<path d="M27.2422 53.7178L30.6913 52.6859" stroke="#474747" stroke-miterlimit="10" stroke-linecap="round" stroke-linejoin="round"/>
<path d="M28.4922 47.7158L31.9413 46.6839" stroke="#474747" stroke-miterlimit="10" stroke-linecap="round" stroke-linejoin="round"/>
<path d="M29.207 44.1152L32.4369 43.1489" stroke="#474747" stroke-miterlimit="10" stroke-linecap="round" stroke-linejoin="round"/>
<path d="M30.2695 39.0859L33.4994 38.1196" stroke="#474747" stroke-miterlimit="10" stroke-linecap="round" stroke-linejoin="round"/>
<path d="M53.0918 47.7303L54.7697 47.2283C55.1059 47.1277 55.3323 46.8097 55.3231 46.4508L55.1544 39.8666C55.1402 39.3139 54.8579 38.8008 54.4011 38.4976L51.5017 36.5733C51.2104 36.38 50.8306 36.5981 50.8451 36.9505L51.061 42.2066C51.076 42.5701 50.8487 42.8948 50.5081 42.9967L48.7848 43.5122" stroke="#474747" stroke-miterlimit="10" stroke-linecap="round" stroke-linejoin="round"/>
<path d="M46.4225 40.4651L47.9008 40.0229C48.2416 39.9209 48.4688 39.596 48.4537 39.2323L48.2824 35.1221C48.2597 34.5778 47.9774 34.0758 47.5267 33.7782L45.3149 32.3179C45.0129 32.1186 44.6236 32.36 44.6612 32.7233L44.9737 35.7413C45.0131 36.1224 44.7829 36.4748 44.4244 36.5821L42.9346 37.0278" stroke="#474747" stroke-miterlimit="10" stroke-linecap="round" stroke-linejoin="round"/>
<path d="M55.2929 45.3255L51.8438 46.3574" stroke="#474747" stroke-miterlimit="10" stroke-linecap="round" stroke-linejoin="round"/>
<path d="M50.953 40.9945L47.5039 42.0264" stroke="#474747" stroke-miterlimit="10" stroke-linecap="round" stroke-linejoin="round"/>
<path d="M48.3784 38.3784L45.1484 39.3447" stroke="#474747" stroke-miterlimit="10" stroke-linecap="round" stroke-linejoin="round"/>
<path d="M44.7299 34.7603L41.5 35.7266" stroke="#474747" stroke-miterlimit="10" stroke-linecap="round" stroke-linejoin="round"/>
<path d="M36.8172 26.0064L32.0722 27.426C31.4907 27.6 30.8783 27.2696 30.7044 26.6881C30.352 25.5104 31.0211 24.27 32.1988 23.9177L34.7848 23.144C35.9625 22.7917 37.2028 23.4608 37.5552 24.6385C37.7291 25.22 37.3987 25.8324 36.8172 26.0064Z" stroke="#474747" stroke-miterlimit="10" stroke-linecap="round" stroke-linejoin="round"/>
<path d="M33.5196 23.5226L32.8047 21.1328" stroke="#474747" stroke-miterlimit="10" stroke-linecap="round" stroke-linejoin="round"/>
<path d="M35.0781 29.0615L35.6501 30.9734" stroke="#474747" stroke-miterlimit="10" stroke-linecap="round" stroke-linejoin="round"/>
<path d="M31.5797 29.2631L30.2929 31.3407" stroke="#474747" stroke-miterlimit="10" stroke-linecap="round" stroke-linejoin="round"/>
<path d="M38.2422 27.2695L40.4585 28.2991" stroke="#474747" stroke-miterlimit="10" stroke-linecap="round" stroke-linejoin="round"/>
</svg>
