<svg width="77" height="76" viewBox="0 0 77 76" fill="none" xmlns="http://www.w3.org/2000/svg">
<rect opacity="0.5" width="61.1121" height="58.6346" rx="11" transform="matrix(-0.944337 -0.328979 -0.328979 0.944337 77 20.1045)" fill="#E7CAAA"/>
<path d="M26.2289 34.2729C25.945 34.1664 25.6285 34.3102 25.522 34.5941C25.4155 34.878 25.5593 35.1945 25.8431 35.301L41.2636 41.0868C41.5475 41.1933 41.864 41.0495 41.9705 40.7657C42.0771 40.4818 41.9333 40.1653 41.6494 40.0588L26.2289 34.2729Z" fill="#365327"/>
<path d="M27.8968 34.8999L37.5537 38.5232C37.8376 38.6297 37.9814 38.9462 37.8749 39.2301L34.2106 48.9964C34.1041 49.2803 33.7875 49.4241 33.5037 49.3176L23.8468 45.6943C23.5629 45.5878 23.4191 45.2712 23.5256 44.9874L27.1899 35.2211C27.2965 34.9372 27.613 34.7934 27.8968 34.8999ZM36.654 39.3584L28.0251 36.1208L24.7465 44.8591L33.3754 48.0966L36.654 39.3584Z" fill="#365327"/>
<path d="M46.7189 36.0368C46.4502 36.1764 46.3455 36.5073 46.4851 36.776C46.6246 37.0447 46.9555 37.1494 47.2242 37.0098C47.4384 36.8985 47.6297 36.7994 47.785 36.754C47.9049 36.7191 48.0237 36.7102 48.1545 36.7463C48.3916 36.8116 48.5799 36.9668 48.6925 37.165C48.8047 37.3624 48.8415 37.6032 48.7762 37.8402C48.6013 38.4826 48.3785 39.4192 48.1475 40.3899C47.8529 41.6282 47.5448 42.9234 47.3073 43.7194C47.2959 43.7577 47.2647 43.8114 47.2506 43.8357C47.2397 43.8544 47.2315 43.8685 47.2257 43.8796C46.8861 44.5415 46.4063 44.9888 45.8464 45.2032C45.2823 45.4192 44.6193 45.4051 43.9188 45.1423L42.4975 44.609C41.8674 44.3726 41.431 44.3891 40.9564 44.727C40.5875 44.9897 40.2562 45.4464 39.7607 46.1685L39.7596 46.1678C39.7497 46.1822 39.7406 46.1969 39.7322 46.2119L38.1011 48.8588C38.0229 48.9673 37.9095 49.0348 37.7885 49.0564C37.6636 49.0787 37.5299 49.0531 37.417 48.9744C37.3047 48.8961 37.2348 48.7805 37.2128 48.657C37.1905 48.5323 37.216 48.3988 37.2945 48.286L37.2947 48.2861C37.306 48.2698 37.3164 48.2531 37.3257 48.236L40.8553 42.8434L40.8563 42.8441C40.9719 42.6782 41.1526 42.5563 41.3548 42.4931C41.5538 42.4309 41.7695 42.4281 41.9589 42.4992L43.5115 43.0817C43.946 43.2448 44.2326 43.3344 44.5553 43.2416C44.912 43.1391 45.118 42.8803 45.3142 42.3599L45.3162 42.3606C45.3231 42.3421 45.329 42.3235 45.3339 42.3048L46.3487 39.4434C46.4504 39.159 46.3022 38.846 46.0178 38.7443C45.7334 38.6426 45.4204 38.7908 45.3187 39.0753L44.3028 41.9396C44.2978 41.9507 44.293 41.9619 44.2887 41.9734L44.2905 41.9741L44.2874 41.9829L44.2875 41.983C44.2322 42.1363 44.29 42.179 44.2537 42.1894C44.2511 42.1901 44.1222 42.1381 43.8972 42.0537L42.3447 41.4712C41.9232 41.313 41.4536 41.3161 41.0271 41.4494C40.6064 41.5808 40.2234 41.8414 39.967 42.2009C39.9599 42.2103 39.953 42.22 39.9464 42.2301L39.9478 42.231L36.4096 47.6369C36.4042 47.6439 36.3989 47.651 36.3938 47.6583L36.395 47.6591L36.3947 47.6595L36.3938 47.6589C36.143 48.0187 36.0618 48.4467 36.1335 48.8476C36.2053 49.2498 36.4299 49.6242 36.7903 49.8754C37.1502 50.1262 37.5781 50.2073 37.979 50.1357C38.3746 50.0651 38.7432 49.8467 38.9942 49.4967C39.0046 49.4829 39.0145 49.4685 39.0237 49.4535L38.5564 49.1655L39.0234 49.453L40.6793 46.7659L40.6793 46.7659C41.0959 46.1591 41.3678 45.7805 41.5923 45.6207C41.714 45.534 41.8633 45.5438 42.1118 45.6371L43.533 46.1703C44.4887 46.5289 45.4196 46.5379 46.2373 46.2248C47.0498 45.9137 47.7331 45.2906 48.2001 44.3826C48.2348 44.3228 48.3099 44.1933 48.357 44.0354C48.592 43.2475 48.9088 41.9158 49.2117 40.6426C49.4402 39.6824 49.6606 38.756 49.8309 38.1306C49.9762 37.6028 49.8935 37.0654 49.6424 36.6235C49.3917 36.1825 48.9727 35.8369 48.4449 35.6916C48.0924 35.5946 47.7833 35.6152 47.478 35.7043C47.2083 35.783 46.9771 35.9026 46.7189 36.0368Z" fill="#365327"/>
<path d="M49.5665 30.6538C50.1856 30.8861 50.652 31.3474 50.9055 31.9055C51.1591 32.4635 51.1997 33.1183 50.9674 33.7374C50.7351 34.3565 50.2738 34.8229 49.7158 35.0764C49.1578 35.33 48.503 35.3706 47.8839 35.1383C47.2648 34.906 46.7984 34.4447 46.5448 33.8867C46.2913 33.3286 46.2506 32.6739 46.4829 32.0548C46.7152 31.4356 47.1765 30.9692 47.7346 30.7157C48.2926 30.4622 48.9474 30.4215 49.5665 30.6538ZM49.9059 32.3596C49.7687 32.0575 49.5161 31.8077 49.1808 31.6819C48.8454 31.556 48.4908 31.578 48.1887 31.7153C47.8866 31.8526 47.6368 32.1052 47.511 32.4405C47.3851 32.7759 47.4072 33.1304 47.5444 33.4325C47.6817 33.7346 47.9343 33.9844 48.2696 34.1103C48.605 34.2361 48.9595 34.2141 49.2616 34.0768C49.5637 33.9396 49.8136 33.687 49.9394 33.3516C50.0652 33.0163 50.0432 32.6617 49.9059 32.3596Z" fill="#365327"/>
<path d="M47.024 37.1096C47.2962 36.9777 47.4099 36.6501 47.2779 36.378C47.146 36.1059 46.8184 35.9922 46.5463 36.1241L44.3617 37.1765L41.0976 36.5914L41.0976 36.5913C40.715 36.4973 40.3302 36.5675 40.0175 36.757C39.7054 36.946 39.4654 37.2541 39.3716 37.6363C39.2777 38.0189 39.3478 38.4037 39.5373 38.7164C39.7263 39.0285 40.0344 39.2685 40.4166 39.3623L40.5477 38.8297L40.4168 39.3629C40.4347 39.3673 40.4526 39.3707 40.4704 39.3733L43.6734 40.1225L43.6732 40.1231L43.7022 40.1313L43.7021 40.1313L43.7026 40.1314C43.9613 40.2035 44.185 40.2258 44.3965 40.2078C44.6256 40.1884 44.8245 40.1242 45.0244 40.0261L47.2972 38.9135C47.5686 38.78 47.6805 38.4518 47.5471 38.1803C47.4136 37.9089 47.0854 37.797 46.8139 37.9304L44.5411 39.0431C44.4587 39.0835 44.3831 39.1095 44.3069 39.1159C44.2255 39.1229 44.1278 39.1112 44.0023 39.0764C43.986 39.071 43.9693 39.0662 43.9522 39.0622L43.9517 39.0642L40.7194 38.3082C40.7061 38.3039 40.6925 38.2999 40.6786 38.2965L40.6785 38.297C40.5898 38.2752 40.5184 38.2196 40.4746 38.1473C40.4312 38.0755 40.4151 37.9869 40.4368 37.8985C40.4586 37.8097 40.5143 37.7381 40.5866 37.6943C40.6547 37.6531 40.738 37.6365 40.8218 37.6535C40.8374 37.6577 40.8534 37.6614 40.8696 37.6643L40.8699 37.6625L44.3009 38.2776C44.4227 38.3096 44.5561 38.3001 44.6785 38.2412L44.4402 37.7466L44.6791 38.2393L47.024 37.1096Z" fill="#365327"/>
<path d="M50.7587 42.3428C50.8836 42.0671 50.7614 41.7423 50.4857 41.6174C50.21 41.4924 49.8852 41.6146 49.7603 41.8903L47.7027 46.419L47.6976 46.4291L47.6972 46.429L47.6945 46.4351C47.3224 47.1602 47.0188 47.5281 46.7154 47.6549C46.445 47.7678 46.0908 47.6876 45.6212 47.5114C45.6032 47.5047 45.585 47.4989 45.5668 47.4941L42.0517 46.2405C41.7672 46.1388 41.4542 46.287 41.3525 46.5714C41.2509 46.8559 41.399 47.1689 41.6835 47.2705L45.1998 48.5246C45.2114 48.5299 45.2233 48.5349 45.2355 48.5395C45.9555 48.8096 46.5428 48.9141 47.1379 48.6655C47.6903 48.4348 48.1683 47.911 48.6695 46.9357C48.6795 46.9189 48.6886 46.9014 48.6969 46.8831L48.1971 46.6561L48.6963 46.8823L50.7587 42.3428Z" fill="#365327"/>
<path d="M44.9875 48.348C45.094 48.0641 44.9503 47.7476 44.6664 47.6411C44.3825 47.5346 44.066 47.6784 43.9595 47.9623L42.8023 51.0464C42.6958 51.3302 42.8396 51.6468 43.1235 51.7533C43.4074 51.8598 43.7239 51.716 43.8304 51.4321L44.9875 48.348Z" fill="#365327"/>
<path d="M40.1241 51.274C39.8225 51.3025 39.601 51.5701 39.6295 51.8717C39.658 52.1734 39.9257 52.3948 40.2273 52.3663L42.9943 52.1026L44.9048 54.1213C45.1133 54.3412 45.4605 54.3505 45.6804 54.1421C45.9003 53.9336 45.9096 53.5863 45.7011 53.3665L43.6213 51.1689C43.5089 51.0411 43.339 50.9672 43.1566 50.9845L43.1566 50.9849L40.1241 51.274Z" fill="#365327"/>
<path d="M32.8695 35.3208C32.5856 35.2143 32.2691 35.3581 32.1626 35.642C32.0561 35.9258 32.1999 36.2423 32.4838 36.3489L36.0819 37.6989C36.3658 37.8054 36.6823 37.6616 36.7888 37.3777C36.8953 37.0938 36.7515 36.7773 36.4676 36.6708L32.8695 35.3208Z" fill="#365327"/>
<path d="M33.3187 34.1216C33.0348 34.0151 32.7183 34.1589 32.6118 34.4427C32.5053 34.7266 32.6491 35.0431 32.933 35.1496L36.5311 36.4997C36.815 36.6062 37.1315 36.4624 37.238 36.1785C37.3445 35.8946 37.2007 35.5781 36.9168 35.4716L33.3187 34.1216Z" fill="#365327"/>
<path d="M35.1581 22.298C36.3742 22.7543 37.2903 23.6604 37.7882 24.7564C38.2862 25.8524 38.3661 27.1385 37.9098 28.3546C37.4535 29.5707 36.5474 30.4868 35.4513 30.9847C34.3553 31.4827 33.0693 31.5626 31.8532 31.1063C30.6371 30.65 29.721 29.7439 29.223 28.6479C28.725 27.5518 28.6452 26.2658 29.1014 25.0497C29.5577 23.8336 30.4639 22.9175 31.5599 22.4195C32.6559 21.9215 33.942 21.8417 35.1581 22.298ZM36.7887 25.2105C36.407 24.3704 35.7047 23.6758 34.7723 23.326C33.84 22.9762 32.8541 23.0374 32.014 23.4191C31.1739 23.8008 30.4793 24.5031 30.1295 25.4354C29.7797 26.3678 29.8409 27.3536 30.2226 28.1937C30.6042 29.0338 31.3065 29.7284 32.2389 30.0783C33.1712 30.4281 34.1571 30.3669 34.9972 29.9852C35.8373 29.6035 36.5319 28.9012 36.8817 27.9689C37.2316 27.0365 37.1704 26.0507 36.7887 25.2105Z" fill="#365327"/>
<path d="M35.4181 27.5906C35.7198 27.6026 35.974 27.3677 35.986 27.0661C35.998 26.7644 35.7631 26.5102 35.4615 26.4982L33.9619 26.4424L33.867 24.5896C33.8513 24.2877 33.5937 24.0557 33.2918 24.0714C32.9899 24.0871 32.7579 24.3447 32.7736 24.6466L32.8919 26.9569C32.8847 27.2567 33.1198 27.5075 33.4203 27.5186L33.4204 27.5163L35.4181 27.5906Z" fill="#365327"/>
</svg>
