<svg width="24" height="24" viewBox="0 0 24 24" fill="none" xmlns="http://www.w3.org/2000/svg">
<g style="mix-blend-mode:luminosity" opacity="0.8">
<path d="M9.05325 16.6875H3C2.17275 16.6875 1.5 16.0147 1.5 15.1875V14.6812C1.5 14.4742 1.668 14.3062 1.875 14.3062H10.3481C10.5551 14.3062 10.7231 14.4742 10.7231 14.6812C10.7231 14.8882 10.5551 15.0562 10.3481 15.0562H2.25V15.1875C2.25 15.6011 2.58637 15.9375 3 15.9375H9.05325C9.26025 15.9375 9.42825 16.1055 9.42825 16.3125C9.42825 16.5195 9.26025 16.6875 9.05325 16.6875Z" fill="#1A2921"/>
<path d="M1.875 15.0562C1.668 15.0562 1.5 14.8882 1.5 14.6812V6.86249C1.5 6.03524 2.17275 5.36249 3 5.36249H13.6088C14.436 5.36249 15.1088 6.03524 15.1088 6.86249C15.1088 7.06949 14.9408 7.23749 14.7338 7.23749C14.5268 7.23749 14.3588 7.06949 14.3588 6.86249C14.3588 6.44886 14.0224 6.11249 13.6088 6.11249H3C2.58637 6.11249 2.25 6.44886 2.25 6.86249V14.6812C2.25 14.8882 2.082 15.0562 1.875 15.0562Z" fill="#1A2921"/>
<path d="M8.30438 19.329H4.125C3.918 19.329 3.75 19.161 3.75 18.954C3.75 18.747 3.918 18.579 4.125 18.579H8.30438C8.51137 18.579 8.67938 18.747 8.67938 18.954C8.67938 19.161 8.51137 19.329 8.30438 19.329Z" fill="#1A2921"/>
<path d="M5.76621 19.329C5.73883 19.329 5.71146 19.326 5.68333 19.32C5.48121 19.2746 5.35446 19.074 5.39983 18.8718L5.99421 16.2303C6.03958 16.0282 6.24021 15.9022 6.44233 15.9468C6.64446 15.9922 6.77121 16.1928 6.72583 16.395L6.13146 19.0365C6.09246 19.2108 5.93796 19.329 5.76621 19.329Z" fill="#1A2921"/>
<path d="M6.78272 10.3087L6.64134 9.75974C6.55059 9.40762 6.33834 9.11437 6.05897 8.91299C6.18122 8.73824 6.25434 8.52637 6.25434 8.29724C6.25434 7.70287 5.77059 7.21912 5.17622 7.21912C4.58184 7.21912 4.09809 7.70287 4.09809 8.29724C4.09809 8.52637 4.17122 8.73824 4.29384 8.91337C4.01447 9.11474 3.80259 9.40799 3.71184 9.76012L3.57047 10.3091C3.54159 10.4212 3.56597 10.5409 3.63722 10.6324C3.70809 10.7242 3.81759 10.7779 3.93384 10.7779H6.41972C6.53559 10.7779 6.64509 10.7242 6.71634 10.6324C6.78722 10.5409 6.81197 10.4216 6.78309 10.3091L6.78272 10.3087Z" fill="#1A2921"/>
<path d="M6.78295 14.5867L6.6412 14.0415C6.55157 13.6879 6.33932 13.3935 6.05883 13.1917C6.18107 13.017 6.2542 12.8051 6.2542 12.576C6.2542 11.9816 5.77045 11.4979 5.17608 11.4979C4.5817 11.4979 4.09795 11.9816 4.09795 12.576C4.09795 12.8055 4.17108 13.017 4.2937 13.1921C4.27833 13.2034 4.2607 13.2116 4.2457 13.2236C3.98357 13.4295 3.7942 13.7201 3.7132 14.0392L3.5707 14.5867C3.54145 14.6992 3.56583 14.8189 3.63708 14.9107C3.70795 15.0026 3.81745 15.0562 3.9337 15.0562H6.41995C6.5362 15.0562 6.6457 15.0022 6.71657 14.9107C6.78745 14.8189 6.8122 14.6992 6.78295 14.5867Z" fill="#1A2921"/>
<path d="M8.30469 14.9591C8.09769 14.9591 7.92969 14.7911 7.92969 14.5841V5.73676C7.92969 5.52976 8.09769 5.36176 8.30469 5.36176C8.51169 5.36176 8.67969 5.52976 8.67969 5.73676V14.5841C8.67969 14.7911 8.51169 14.9591 8.30469 14.9591Z" fill="#1A2921"/>
<path d="M8.30475 10.7771H1.875C1.668 10.7771 1.5 10.6091 1.5 10.4021C1.5 10.1951 1.668 10.0271 1.875 10.0271H8.30475C8.51175 10.0271 8.67975 10.1951 8.67975 10.4021C8.67975 10.6091 8.51175 10.7771 8.30475 10.7771Z" fill="#1A2921"/>
<path d="M21.668 17.5065C21.3747 15.8708 20.0881 14.631 18.4951 14.361C19.1135 13.6916 19.4645 12.8123 19.4645 11.8733C19.4645 9.84339 17.813 8.19189 15.7835 8.19189C13.754 8.19189 12.1021 9.84339 12.1021 11.8733C12.1021 12.8123 12.4535 13.6916 13.0715 14.361C11.9937 14.5425 11.0408 15.1684 10.4453 16.1104C10.1705 16.5401 9.98596 17.0096 9.89708 17.5069L9.07246 22.0583C9.05258 22.1678 9.08221 22.2803 9.15346 22.3654C9.22471 22.4509 9.33008 22.5 9.44146 22.5H22.124C22.235 22.5 22.3407 22.4509 22.412 22.3654C22.4832 22.2799 22.5128 22.1674 22.493 22.0583L21.668 17.5065Z" fill="#7C9A82"/>
<path d="M12.3363 21.3752C12.3142 21.3752 12.2917 21.3733 12.2692 21.3692C12.0656 21.3324 11.9302 21.1371 11.967 20.9334L12.4882 18.0534C12.525 17.8498 12.7188 17.7133 12.924 17.7512C13.1276 17.7879 13.263 17.9833 13.2262 18.1869L12.705 21.0669C12.6723 21.2481 12.5145 21.3752 12.3363 21.3752Z" fill="#1A2921"/>
<path d="M19.228 21.375C19.0499 21.375 18.892 21.2479 18.8594 21.0668L18.3382 18.1868C18.301 17.9832 18.4364 17.7878 18.6404 17.751C18.8455 17.7128 19.0394 17.8497 19.0762 18.0533L19.5974 20.9333C19.6345 21.1369 19.4992 21.3323 19.2952 21.369C19.2723 21.3732 19.2502 21.375 19.228 21.375Z" fill="#1A2921"/>
<path d="M15.7852 15.4838C15.5381 15.4838 15.2917 15.4482 15.0735 15.3814C14.8755 15.3203 14.7645 15.1107 14.8252 14.9127C14.8863 14.7147 15.0956 14.6033 15.294 14.6644C15.5898 14.7555 15.9798 14.7555 16.2787 14.6644C16.4763 14.6033 16.6863 14.7158 16.7471 14.9138C16.8075 15.1118 16.6957 15.3214 16.4977 15.3822C16.275 15.45 16.0353 15.4845 15.7852 15.4845V15.4838Z" fill="#1A2921"/>
<path d="M8.77241 4.76325H7.83866C6.93903 4.76325 6.20703 4.03125 6.20703 3.13162C6.20703 2.232 6.93903 1.5 7.83866 1.5H8.77241C9.67203 1.5 10.404 2.232 10.404 3.13162C10.404 4.03125 9.67203 4.76325 8.77241 4.76325ZM7.83866 2.25C7.35266 2.25 6.95703 2.64562 6.95703 3.13162C6.95703 3.61762 7.35266 4.01325 7.83866 4.01325H8.77241C9.25841 4.01325 9.65403 3.61762 9.65403 3.13162C9.65403 2.64562 9.25841 2.25 8.77241 2.25H7.83866Z" fill="#1A2921"/>
<path d="M10.3492 6.11174H6.26544C6.11994 6.11174 5.98757 6.02774 5.92607 5.89612C5.86457 5.76449 5.88407 5.60887 5.97707 5.49712L7.15082 4.08449C7.28319 3.92549 7.51944 3.90337 7.67882 4.03574C7.83819 4.16812 7.85994 4.40437 7.72757 4.56374L7.06457 5.36174H9.54969L8.88332 4.56074C8.75094 4.40137 8.77269 4.16512 8.93169 4.03237C9.09069 3.89962 9.32732 3.92137 9.46007 4.08074L10.6376 5.49637C10.7306 5.60812 10.7504 5.76374 10.6886 5.89537C10.6267 6.02699 10.4943 6.11099 10.3492 6.11099V6.11174Z" fill="#1A2921"/>
<path d="M8.41484 3.50665H8.19922C7.99222 3.50665 7.82422 3.33865 7.82422 3.13165C7.82422 2.92465 7.99222 2.75665 8.19922 2.75665H8.41484C8.62184 2.75665 8.78984 2.92465 8.78984 3.13165C8.78984 3.33865 8.62184 3.50665 8.41484 3.50665Z" fill="#1A2921"/>
<path d="M20.4958 20.25H19.0273C18.8203 20.25 18.6523 20.082 18.6523 19.875C18.6523 19.668 18.8203 19.5 19.0273 19.5H20.4958C20.7028 19.5 20.8708 19.668 20.8708 19.875C20.8708 20.082 20.7028 20.25 20.4958 20.25Z" fill="#1A2921"/>
<path d="M12.5349 20.25H11.0664C10.8594 20.25 10.6914 20.082 10.6914 19.875C10.6914 19.668 10.8594 19.5 11.0664 19.5H12.5349C12.7419 19.5 12.9099 19.668 12.9099 19.875C12.9099 20.082 12.7419 20.25 12.5349 20.25Z" fill="#1A2921"/>
</g>
</svg>
