<svg width="24" height="24" viewBox="0 0 24 24" fill="none" xmlns="http://www.w3.org/2000/svg">
<g style="mix-blend-mode:luminosity" opacity="0.8">
<path d="M22.1255 13.0125H12.7389C12.5315 13.0125 12.3639 12.8445 12.3639 12.6375C12.3639 12.4305 12.5315 12.2625 12.7389 12.2625H21.7505V11.0963H12.7344C12.527 11.0963 12.3594 10.9283 12.3594 10.7213C12.3594 10.5143 12.527 10.3463 12.7344 10.3463H22.1255C22.3329 10.3463 22.5005 10.5143 22.5005 10.7213V12.6375C22.5005 12.8445 22.3329 13.0125 22.1255 13.0125Z" fill="#1A2921"/>
<path d="M4.125 13.0125H1.875C1.66763 13.0125 1.5 12.8445 1.5 12.6375V10.7213C1.5 10.5143 1.66763 10.3463 1.875 10.3463H4.1265C4.33387 10.3463 4.5015 10.5143 4.5015 10.7213C4.5015 10.9283 4.33387 11.0963 4.1265 11.0963H2.25V12.2625H4.125C4.33238 12.2625 4.5 12.4305 4.5 12.6375C4.5 12.8445 4.33238 13.0125 4.125 13.0125Z" fill="#1A2921"/>
<path d="M20.2503 11.0963H15.0704C14.9437 11.0963 14.8256 11.0321 14.7562 10.9256C14.6868 10.8195 14.6759 10.6853 14.7277 10.5694L15.6217 8.55076C15.6817 8.41501 15.8163 8.32764 15.9644 8.32764H19.3567C19.5052 8.32764 19.6394 8.41501 19.6994 8.55076L20.5934 10.5694C20.6452 10.6853 20.6339 10.8195 20.5649 10.9256C20.4956 11.0321 20.3774 11.0963 20.2507 11.0963H20.2503ZM15.6464 10.3463H19.6743L19.1126 9.07764H16.2082L15.6464 10.3463Z" fill="#1A2921"/>
<path d="M22.4991 2.57625V6.79125H12.8203V2.57625C12.8203 1.98375 13.3041 1.5 13.8966 1.5H21.4228C22.0153 1.5 22.4991 1.98375 22.4991 2.57625Z" fill="#1A2921"/>
<path d="M12.8203 7.54126H22.4991V8.00251C22.4991 8.59501 22.0153 9.07876 21.4228 9.07876H13.8966C13.3041 9.07876 12.8203 8.59501 12.8203 8.00251V7.54126Z" fill="#1A2921"/>
<path d="M3 21.3746C2.79263 21.3746 2.625 21.2066 2.625 20.9996V12.6375C2.625 12.4305 2.79263 12.2625 3 12.2625C3.20737 12.2625 3.375 12.4305 3.375 12.6375V20.9996C3.375 21.2066 3.20737 21.3746 3 21.3746Z" fill="#1A2921"/>
<path d="M21.3434 21.3746H14.2383C14.0309 21.3746 13.8633 21.2066 13.8633 20.9996V12.636C13.8633 12.429 14.0309 12.261 14.2383 12.261H21.3434C21.5508 12.261 21.7184 12.429 21.7184 12.636V20.9996C21.7184 21.2066 21.5508 21.3746 21.3434 21.3746ZM14.6133 20.6246H20.9684V13.011H14.6133V20.6246Z" fill="#1A2921"/>
<path d="M21.3434 15.7999H14.2383C14.0309 15.7999 13.8633 15.6319 13.8633 15.4249C13.8633 15.2179 14.0309 15.0499 14.2383 15.0499H21.3434C21.5508 15.0499 21.7184 15.2179 21.7184 15.4249C21.7184 15.6319 21.5508 15.7999 21.3434 15.7999Z" fill="#1A2921"/>
<path d="M21.3434 18.5872H14.2383C14.0309 18.5872 13.8633 18.4192 13.8633 18.2122C13.8633 18.0052 14.0309 17.8372 14.2383 17.8372H21.3434C21.5508 17.8372 21.7184 18.0052 21.7184 18.2122C21.7184 18.4192 21.5508 18.5872 21.3434 18.5872Z" fill="#1A2921"/>
<path d="M17.9002 14.3456H17.3516C17.1442 14.3456 16.9766 14.1776 16.9766 13.9706C16.9766 13.7636 17.1442 13.5956 17.3516 13.5956H17.9002C18.1076 13.5956 18.2752 13.7636 18.2752 13.9706C18.2752 14.1776 18.1076 14.3456 17.9002 14.3456Z" fill="#1A2921"/>
<path d="M17.9002 17.1926H17.3516C17.1442 17.1926 16.9766 17.0246 16.9766 16.8176C16.9766 16.6106 17.1442 16.4426 17.3516 16.4426H17.9002C18.1076 16.4426 18.2752 16.6106 18.2752 16.8176C18.2752 17.0246 18.1076 17.1926 17.9002 17.1926Z" fill="#1A2921"/>
<path d="M17.9002 20.0396H17.3516C17.1442 20.0396 16.9766 19.8716 16.9766 19.6646C16.9766 19.4576 17.1442 19.2896 17.3516 19.2896H17.9002C18.1076 19.2896 18.2752 19.4576 18.2752 19.6646C18.2752 19.8716 18.1076 20.0396 17.9002 20.0396Z" fill="#1A2921"/>
<path d="M11.5188 19.7404L8.80606 19.1929V15.8138H10.1812C11.3542 15.8138 12.3082 14.8598 12.3082 13.6868C12.3082 13.4798 12.1406 13.3118 11.9332 13.3118H8.80606V12.5831H10.0874C11.0426 12.5831 11.8196 11.8061 11.8196 10.851V7.93763C11.8196 6.06938 10.2993 4.54913 8.43106 4.54913C6.56281 4.54913 5.04294 6.06901 5.04294 7.93763V10.851C5.04294 11.8061 5.81994 12.5831 6.77506 12.5831H8.05606V13.3118H4.92969C4.72231 13.3118 4.55469 13.4798 4.55469 13.6868C4.55469 14.8594 5.50869 15.8138 6.68131 15.8138H8.05606V19.1933L5.34369 19.7408C5.16894 19.776 5.04294 19.9298 5.04294 20.1083V21C5.04294 21.207 5.21056 21.375 5.41794 21.375C5.62531 21.375 5.79294 21.207 5.79294 21V20.415L8.05606 19.9579V21C8.05606 21.207 8.22369 21.375 8.43106 21.375C8.63844 21.375 8.80606 21.207 8.80606 21V19.9579L11.0696 20.415V21C11.0696 21.207 11.2372 21.375 11.4446 21.375C11.6519 21.375 11.8196 21.207 11.8196 21V20.1083C11.8196 19.9298 11.6936 19.7756 11.5188 19.7404Z" fill="#7C9A82"/>
</g>
</svg>
